<?xml version="1.0" encoding="UTF-8"?>
<svg id="Layer_2" data-name="Layer 2" xmlns="http://www.w3.org/2000/svg" viewBox="0 0 1379.84 215.84">
  <defs>
    <style>
      .cls-1 {
        fill: #cc0e4e;
      }

      .cls-2 {
        fill: #727272;
      }
    </style>
  </defs>
  <g id="Layer_1-2" data-name="Layer 1">
    <g>
      <g>
        <path d="M335.32,2.03c42,0,65.94,16.84,65.94,58.23v20.29c0,40.58-23.53,57.42-65.94,57.42h-66.95V2.03h66.95ZM301.64,110.37h33.68c23.33,0,32.06-9.13,32.06-29.82v-20.29c0-20.9-8.52-30.64-32.06-30.64h-33.68v80.75Z"/>
        <path d="M527.32,2.03v26.98h-80.95v26.78h71.01v25.77h-71.01v29.21h81.96v27.19h-115.24V2.03h114.22Z"/>
        <path d="M611.95,0c40.37,0,65.73,18.67,65.73,52.95v3.25h-33.68v-3.25c0-15.01-10.75-23.94-32.26-23.94h-4.26c-21.1,0-32.87,9.54-32.87,28.61v24.35c0,20.09,11.97,29.01,32.87,29.01h4.26c21.51,0,32.87-8.93,32.87-24.55v-2.03h33.88v2.03c0,35.1-26.17,53.56-66.55,53.56h-4.46c-39.36,0-66.55-18.67-66.55-58.02v-24.35c0-38.35,27.19-57.62,66.55-57.62h4.46Z"/>
        <path d="M723.61,2.03v52.75h6.29l50.92-52.75h38.75l-59.44,61.47v7.3l62.08,67.15h-40.98l-51.33-55.59h-6.29v55.59h-33.27V2.03h33.27Z"/>
        <path d="M912.17,2.03c28.2,0,46.66,9.74,46.66,33.07v4.26c0,10.96-5.28,19.48-15.62,25.36v4.67c12.17,5.27,18.87,14.61,18.87,28.4v5.07c0,22.11-16.23,35.1-47.47,35.1h-80.54V2.03h78.11ZM866.72,57.62h40.98c11.36,0,17.85-4.67,17.85-13.59v-3.65c0-8.93-6.29-13.39-18.26-13.39h-40.58v30.64ZM866.72,113.01h42.4c13.19,0,19.88-4.67,19.88-14.61v-3.65c0-9.74-6.9-14.4-20.29-14.4h-42v32.66Z"/>
        <path d="M994.61,2.03l35.1,50.11h8.52l33.88-50.11h33.88l-55.59,82.17v53.76h-33.27v-53.76L958.3,2.03h36.32Z"/>
        <path d="M1252.76,2.03v27.59h-50.72v108.34h-33.48V29.62h-50.72V2.03h134.92Z"/>
        <path d="M1378.82,2.03v26.98h-80.95v26.78h71.01v25.77h-71.01v29.21h81.96v27.19h-115.24V2.03h114.22Z"/>
      </g>
      <g>
        <rect class="cls-1" y="2.03" width="79.43" height="80.14"/>
        <polygon class="cls-1" points="213.54 2.03 213.54 139.38 137.35 215.57 0 215.57 0 139.48 136.92 139.48 136.92 2.03 213.54 2.03"/>
        <rect class="cls-1" y="1.99" width="79.43" height="80.18"/>
        <rect class="cls-1" y="1.99" width="79.43" height="80.18"/>
      </g>
      <g>
        <path class="cls-2" d="M273.12,176.04v39.11h-4.99v-39.11h4.99ZM280.33,215.16h-9.45v-4.41h9.14c3.19,0,5.82-.61,7.91-1.82s3.65-2.96,4.69-5.24c1.03-2.27,1.55-5,1.55-8.16s-.51-5.82-1.54-8.07c-1.02-2.25-2.55-3.98-4.57-5.18-2.02-1.21-4.55-1.81-7.57-1.81h-9.82v-4.41h10.16c3.81,0,7.07.78,9.78,2.34,2.7,1.56,4.78,3.79,6.22,6.71s2.17,6.39,2.17,10.43-.73,7.58-2.18,10.51c-1.45,2.93-3.57,5.18-6.35,6.76-2.78,1.58-6.16,2.36-10.13,2.36Z"/>
        <path class="cls-2" d="M323.51,176.04v39.11h-4.99v-39.11h4.99Z"/>
        <path class="cls-2" d="M360.54,215.68c-3.48,0-6.54-.81-9.16-2.44-2.62-1.63-4.67-3.94-6.14-6.94-1.47-3-2.21-6.56-2.21-10.67s.73-7.72,2.21-10.72c1.47-3,3.5-5.32,6.09-6.94,2.59-1.63,5.56-2.44,8.9-2.44,2.06,0,3.99.31,5.79.92s3.4,1.49,4.82,2.62,2.59,2.49,3.53,4.06c.94,1.57,1.58,3.29,1.93,5.18h-5.15c-.4-1.26-.94-2.39-1.6-3.39-.67-1-1.46-1.85-2.38-2.57s-1.96-1.26-3.11-1.64c-1.15-.38-2.42-.56-3.81-.56-2.29,0-4.38.59-6.25,1.77-1.87,1.18-3.36,2.92-4.46,5.22-1.1,2.3-1.65,5.13-1.65,8.49s.56,6.13,1.67,8.43c1.11,2.29,2.62,4.03,4.53,5.22,1.91,1.19,4.06,1.79,6.46,1.79,2.21,0,4.15-.47,5.83-1.41,1.68-.94,2.99-2.27,3.92-3.99.94-1.72,1.4-3.76,1.4-6.1l1.5.29h-11.63v-4.36h15.02v4.28c0,3.24-.69,6.05-2.07,8.43s-3.28,4.22-5.68,5.53-5.17,1.96-8.28,1.96Z"/>
        <path class="cls-2" d="M401.24,176.04v39.11h-4.99v-39.11h4.99Z"/>
        <path class="cls-2" d="M420.13,180.45v-4.41h29.56v4.41h-12.26v34.7h-4.99v-34.7h-12.31Z"/>
        <path class="cls-2" d="M460.65,215.16l14.2-39.11h5.78l14.39,39.11h-5.25l-8.3-23.21c-.51-1.43-1.1-3.22-1.77-5.37-.67-2.14-1.49-4.88-2.45-8.2h.94c-.94,3.36-1.76,6.13-2.45,8.31s-1.26,3.93-1.72,5.26l-8.06,23.21h-5.3ZM467.79,204.24v-4.36h20.08v4.36h-20.08Z"/>
        <path class="cls-2" d="M512.7,215.16v-39.11h4.99v34.7h18.11v4.41h-23.1Z"/>
        <path class="cls-2" d="M593.08,215.84c-2.82,0-5.26-.46-7.34-1.37-2.07-.91-3.7-2.18-4.87-3.82s-1.84-3.55-2-5.74h5.12c.14,1.47.64,2.68,1.5,3.64.86.95,1.96,1.66,3.29,2.13s2.77.7,4.29.7c1.77,0,3.36-.29,4.76-.87,1.41-.58,2.52-1.39,3.35-2.44.82-1.05,1.23-2.27,1.23-3.65,0-1.26-.35-2.28-1.06-3.07-.71-.79-1.65-1.44-2.82-1.94-1.17-.51-2.46-.95-3.86-1.34l-4.73-1.34c-3.15-.89-5.6-2.17-7.35-3.83-1.75-1.66-2.62-3.79-2.62-6.38,0-2.21.59-4.13,1.79-5.79,1.19-1.65,2.8-2.94,4.83-3.85s4.31-1.37,6.83-1.37,4.85.46,6.83,1.37,3.54,2.15,4.69,3.71c1.15,1.57,1.75,3.34,1.82,5.32h-4.88c-.23-1.91-1.14-3.38-2.73-4.42-1.59-1.04-3.55-1.56-5.88-1.56-1.68,0-3.15.28-4.42.83-1.27.55-2.25,1.3-2.95,2.26-.7.95-1.05,2.04-1.05,3.27,0,1.37.42,2.46,1.27,3.29.85.83,1.85,1.48,3.02,1.94s2.22.83,3.16,1.09l3.91,1.08c1.05.28,2.21.67,3.48,1.16,1.27.49,2.48,1.14,3.64,1.96,1.16.81,2.1,1.85,2.85,3.1.74,1.25,1.12,2.79,1.12,4.61,0,2.14-.56,4.06-1.67,5.78-1.11,1.72-2.73,3.07-4.84,4.07-2.12,1-4.68,1.5-7.69,1.5Z"/>
        <path class="cls-2" d="M642.5,215.68c-3.34,0-6.32-.81-8.94-2.43-2.62-1.62-4.68-3.93-6.18-6.93-1.5-3-2.26-6.57-2.26-10.7s.75-7.72,2.26-10.72c1.5-3,3.57-5.32,6.18-6.94,2.62-1.63,5.6-2.44,8.94-2.44s6.32.81,8.92,2.44c2.61,1.63,4.66,3.94,6.16,6.94,1.5,3,2.24,6.58,2.24,10.72s-.75,7.7-2.24,10.7c-1.5,3-3.55,5.31-6.16,6.93-2.61,1.62-5.58,2.43-8.92,2.43ZM642.5,211.06c2.33,0,4.43-.59,6.31-1.77,1.88-1.18,3.38-2.92,4.49-5.22,1.11-2.3,1.67-5.11,1.67-8.44s-.56-6.19-1.67-8.49c-1.11-2.3-2.61-4.04-4.49-5.22-1.88-1.18-3.99-1.77-6.31-1.77s-4.46.59-6.35,1.79c-1.89,1.19-3.39,2.94-4.5,5.24-1.11,2.3-1.67,5.12-1.67,8.47s.56,6.13,1.67,8.43c1.11,2.29,2.61,4.03,4.5,5.22,1.89,1.19,4.01,1.79,6.35,1.79Z"/>
        <path class="cls-2" d="M679.35,215.16v-39.11h4.99v34.7h18.11v4.41h-23.1Z"/>
        <path class="cls-2" d="M736.64,215.78c-3.08,0-5.77-.6-8.07-1.81-2.3-1.21-4.08-2.86-5.34-4.96-1.26-2.1-1.89-4.49-1.89-7.17v-25.8h4.99v25.41c0,1.87.42,3.54,1.25,5,.83,1.46,2.02,2.61,3.56,3.45s3.38,1.26,5.51,1.26,3.97-.42,5.5-1.26c1.53-.84,2.71-1.99,3.53-3.45s1.23-3.13,1.23-5v-25.41h4.99v25.8c0,2.68-.63,5.07-1.89,7.17-1.26,2.1-3.03,3.75-5.32,4.96-2.28,1.21-4.97,1.81-8.05,1.81Z"/>
        <path class="cls-2" d="M770.79,180.45v-4.41h29.56v4.41h-12.26v34.7h-4.99v-34.7h-12.31Z"/>
        <path class="cls-2" d="M824.22,176.04v39.11h-4.99v-39.11h4.99Z"/>
        <path class="cls-2" d="M861.12,215.68c-3.34,0-6.32-.81-8.94-2.43-2.62-1.62-4.68-3.93-6.18-6.93-1.5-3-2.26-6.57-2.26-10.7s.75-7.72,2.26-10.72c1.5-3,3.57-5.32,6.18-6.94,2.62-1.63,5.6-2.44,8.94-2.44s6.32.81,8.92,2.44c2.61,1.63,4.66,3.94,6.16,6.94,1.5,3,2.24,6.58,2.24,10.72s-.75,7.7-2.24,10.7c-1.5,3-3.55,5.31-6.16,6.93-2.61,1.62-5.58,2.43-8.92,2.43ZM861.12,211.06c2.33,0,4.43-.59,6.31-1.77,1.88-1.18,3.38-2.92,4.49-5.22,1.11-2.3,1.67-5.11,1.67-8.44s-.56-6.19-1.67-8.49c-1.11-2.3-2.61-4.04-4.49-5.22-1.88-1.18-3.99-1.77-6.31-1.77s-4.46.59-6.35,1.79c-1.89,1.19-3.39,2.94-4.5,5.24-1.11,2.3-1.67,5.12-1.67,8.47s.56,6.13,1.67,8.43c1.11,2.29,2.61,4.03,4.5,5.22,1.89,1.19,4.01,1.79,6.35,1.79Z"/>
        <path class="cls-2" d="M897.97,215.16v-39.11h5.88l15.91,25.02c.42.65.93,1.48,1.52,2.49.59,1.01,1.24,2.16,1.93,3.44.69,1.28,1.37,2.64,2.03,4.09h-.71c-.16-1.5-.27-2.94-.34-4.32-.07-1.37-.11-2.64-.13-3.79s-.03-2.13-.03-2.94v-23.99h4.99v39.11h-5.93l-14.18-22.26c-.65-1.03-1.3-2.1-1.96-3.19s-1.4-2.39-2.24-3.88c-.84-1.5-1.88-3.35-3.12-5.55h.92c.09,1.94.17,3.74.24,5.38.07,1.65.13,3.08.17,4.3.04,1.23.07,2.19.07,2.89v22.31h-5.01Z"/>
        <path class="cls-2" d="M962.59,215.84c-2.82,0-5.26-.46-7.34-1.37-2.07-.91-3.7-2.18-4.87-3.82s-1.84-3.55-2-5.74h5.12c.14,1.47.64,2.68,1.5,3.64.86.95,1.96,1.66,3.29,2.13s2.77.7,4.29.7c1.77,0,3.36-.29,4.76-.87,1.41-.58,2.52-1.39,3.35-2.44.82-1.05,1.23-2.27,1.23-3.65,0-1.26-.35-2.28-1.06-3.07-.71-.79-1.65-1.44-2.82-1.94-1.17-.51-2.46-.95-3.86-1.34l-4.73-1.34c-3.15-.89-5.6-2.17-7.35-3.83-1.75-1.66-2.62-3.79-2.62-6.38,0-2.21.59-4.13,1.79-5.79,1.19-1.65,2.8-2.94,4.83-3.85s4.31-1.37,6.83-1.37,4.85.46,6.83,1.37,3.54,2.15,4.69,3.71c1.15,1.57,1.75,3.34,1.82,5.32h-4.88c-.23-1.91-1.14-3.38-2.73-4.42-1.59-1.04-3.55-1.56-5.88-1.56-1.68,0-3.15.28-4.42.83-1.27.55-2.25,1.3-2.95,2.26-.7.95-1.05,2.04-1.05,3.27,0,1.37.42,2.46,1.27,3.29.85.83,1.85,1.48,3.02,1.94s2.22.83,3.16,1.09l3.91,1.08c1.05.28,2.21.67,3.48,1.16,1.27.49,2.48,1.14,3.64,1.96,1.16.81,2.1,1.85,2.85,3.1.74,1.25,1.12,2.79,1.12,4.61,0,2.14-.56,4.06-1.67,5.78-1.11,1.72-2.73,3.07-4.84,4.07-2.12,1-4.68,1.5-7.69,1.5Z"/>
      </g>
    </g>
  </g>
</svg>